<svg width="41" height="36" viewBox="0 0 41 36" fill="none" xmlns="http://www.w3.org/2000/svg">
<g clip-path="url(#clip0_169_15)">
<path d="M35.0281 0.463867H6.66836C3.4285 0.463867 0.792725 2.79161 0.792725 5.65285V30.6984C0.792725 33.5596 3.4285 35.8873 6.66836 35.8873H35.0281C38.268 35.8873 40.9038 33.5596 40.9038 30.6984V5.65285C40.9038 2.79161 38.268 0.463867 35.0281 0.463867ZM38.5535 30.6984C38.5535 32.4151 36.972 33.8118 35.0281 33.8118H6.66836C4.72451 33.8118 3.14298 32.4151 3.14298 30.6984V5.65285C3.14298 3.93616 4.72451 2.53946 6.66836 2.53946H35.0281C36.972 2.53946 38.5535 3.93616 38.5535 5.65285V30.6984Z" fill="#070707" stroke="#070707" stroke-width="0.5"/>
<path d="M19.6732 15.0623C19.6732 12.7732 17.5647 10.9111 14.9726 10.9111H7.92188V25.4403H14.9726C17.5647 25.4403 19.6732 23.5782 19.6732 21.2891C19.6732 20.0502 19.0547 18.937 18.0766 18.1757C19.0547 17.4144 19.6732 16.3012 19.6732 15.0623ZM17.3229 21.2891C17.3229 22.4337 16.2686 23.3647 14.9726 23.3647H10.2721V19.2135H14.9726C16.2686 19.2135 17.3229 20.1446 17.3229 21.2891ZM10.2721 17.1379V12.9867H14.9726C16.2686 12.9867 17.3229 13.9178 17.3229 15.0623C17.3229 16.2069 16.2686 17.1379 14.9726 17.1379H10.2721Z" fill="#070707" stroke="#070707" stroke-width="0.5"/>
<path d="M27.8991 15.0625C24.6592 15.0625 22.0234 17.3902 22.0234 20.2515C22.0234 23.1127 24.6592 25.4405 27.8991 25.4405C29.9901 25.4405 31.9401 24.4467 32.9879 22.8468L30.9535 21.8074C30.3243 22.7682 29.1538 23.3649 27.8991 23.3649C26.3668 23.3649 25.0601 22.4974 24.5751 21.2893H33.7747V20.2515C33.7747 17.3902 31.1389 15.0625 27.8991 15.0625ZM24.5751 19.2137C25.0601 18.0056 26.3668 17.1381 27.8991 17.1381C29.4313 17.1381 30.7381 18.0056 31.2231 19.2137H24.5751Z" fill="#070707" stroke="#070707" stroke-width="0.5"/>
<path d="M23.1985 10.9111H32.5995V12.9867H23.1985V10.9111Z" fill="#070707" stroke="#070707" stroke-width="0.5"/>
</g>
<defs>
<clipPath id="clip0_169_15">
<rect width="40.111" height="35.4235" fill="white" transform="translate(0.792725 0.463867)"/>
</clipPath>
</defs>
</svg>
