<svg width="82" height="82" viewBox="0 0 82 82" fill="none" xmlns="http://www.w3.org/2000/svg">
<g clip-path="url(#clip0_261_13)">
<path d="M57.8712 3.79824H53.0825L58.0626 9.20247V11.7752H47.8053V8.76276H52.7848L47.8053 3.35853V0.783203H57.8712V3.79824ZM45.7715 3.79824H40.9828L45.9629 9.20247V11.7752H35.705V8.76276H40.6851L35.705 3.35853V0.783203H45.7715V3.79824ZM33.7905 3.92146H28.623V8.63695H33.7905V11.7752H24.9497V0.783203H33.7905V3.92146Z" fill="#131313"/>
<path d="M17.9079 75.6883L12.6567 16.793H70.3549L65.0991 75.6786L41.4705 82.23L17.9079 75.6883Z" fill="#1572B6"/>
<path d="M41.5068 77.2231L60.599 71.9298L65.0908 21.6094H41.5068V77.2231Z" fill="#33A9DC"/>
<path d="M41.5061 42.9461H51.0642L51.7251 35.5495H41.5061V28.3262H59.619L59.4458 30.264L57.6708 50.1688H41.5061V42.9461Z" fill="white"/>
<path d="M41.5496 61.7057L41.5178 61.7148L33.4734 59.5422L32.9585 53.7812H25.7085L26.7209 65.1228L41.5165 69.23L41.5502 69.2202V61.7057H41.5496Z" fill="#EBEBEB"/>
<path d="M50.4506 49.8633L49.5803 59.5368L41.5242 61.7113V69.2266L56.3321 65.1226L56.4411 63.9021L57.698 49.8633H50.4506Z" fill="white"/>
<path d="M41.5315 28.3262V35.5489H24.084L23.9387 33.9256L23.6099 30.264L23.4368 28.3262H41.5315ZM41.5062 42.9467V50.1701H33.5636L33.419 48.5468L33.0895 44.8845L32.9164 42.9467H41.5062Z" fill="#EBEBEB"/>
</g>
<defs>
<clipPath id="clip0_261_13">
<rect width="82" height="82" fill="white"/>
</clipPath>
</defs>
</svg>
