<svg width="40" height="36" viewBox="0 0 40 36" fill="none" xmlns="http://www.w3.org/2000/svg">
<path d="M30.3523 6.61562L30.7219 6.20426L30.2755 5.87783C27.3596 3.74569 23.6649 2.47768 19.6298 2.47768C18.216 2.47768 16.8446 2.65308 15.5451 2.94079L14.7402 3.11899L15.2702 3.75041C16.6598 5.40605 18.6555 7.90588 21.0456 11.8212L21.2521 12.1594L21.6286 12.0356C26.1484 10.5494 28.8621 8.27401 30.3523 6.61562ZM13.0527 4.05722L12.816 3.78106L12.4803 3.92126C7.99434 5.7952 4.57146 9.38547 3.21709 13.7981L3.02427 14.4263L3.68115 14.4446C6.15323 14.5135 12.0657 14.4104 18.6171 12.856L19.2957 12.6951L18.9254 12.1041C16.3797 8.04122 14.2388 5.44097 13.0527 4.05722ZM32.505 7.82727L32.1377 7.44078L31.7756 7.83218C30.1242 9.61709 27.2497 11.9436 22.6907 13.5234L22.1286 13.7182L22.4171 14.2384C23.3977 16.0062 24.3485 17.8893 25.2147 19.9224L25.364 20.2729L25.7417 20.2219C29.0397 19.7759 32.0883 19.7759 34.3913 19.9356C34.9524 19.9768 35.315 20.0232 35.7351 20.0769C35.8235 20.0882 35.9144 20.0999 36.0102 20.1118L36.5084 20.1741L36.5686 19.6756C36.6365 19.1135 36.6756 18.5484 36.6756 17.9638C36.6756 14.0759 35.0845 10.5413 32.505 7.82727ZM20.3663 14.5935L20.1789 14.2608L19.8087 14.354C12.0883 16.2964 5.28711 16.2371 3.16768 16.1614L2.69269 16.1444L2.65168 16.6179L2.64897 16.6492C2.61249 17.0702 2.57461 17.5073 2.57461 17.9723C2.57461 22.6473 4.85906 26.8044 8.4328 29.6378L8.78028 29.9133L9.09531 29.6012C9.98984 28.715 11.1897 27.5862 12.6488 26.4078L12.6508 26.4062C15.3943 24.1664 18.9297 21.7914 22.7868 20.7542L23.3494 20.6029L23.1145 20.0697C22.2517 18.1117 21.3229 16.292 20.3663 14.5935ZM29.8698 21.5767L29.865 21.5769C28.8555 21.6201 27.7808 21.7062 26.6877 21.8354L26.0589 21.9097L26.277 22.5041C27.1992 25.0183 27.9616 27.6806 28.454 30.449L28.5827 31.173L29.2087 30.787C32.3929 28.8234 34.8151 25.8965 35.9457 22.445L36.1394 21.8537L35.5203 21.7918C34.0616 21.646 32.2134 21.4991 29.8698 21.5767ZM24.2051 22.6471L24.0456 22.2302L23.6133 22.3416C20.2403 23.2107 16.7055 25.4672 14.0223 27.6484C12.7265 28.6927 11.6799 29.684 10.8402 30.4958L10.3465 30.973L10.9522 31.2964C13.495 32.6537 16.4429 33.4499 19.6204 33.4499C22.0055 33.4499 24.2564 33.0038 26.314 32.2163L26.6905 32.0722L26.6296 31.6737C26.144 28.5004 25.2877 25.4771 24.2051 22.6471ZM0.575684 17.9638C0.575684 8.52736 9.08465 0.75293 19.6298 0.75293C30.175 0.75293 38.6839 8.52736 38.6839 17.9638C38.6839 27.4002 30.175 35.1747 19.6298 35.1747C9.08465 35.1747 0.575684 27.4002 0.575684 17.9638Z" fill="#070707" stroke="#070707"/>
</svg>
