<svg width="88" height="88" viewBox="0 0 88 88" fill="none" xmlns="http://www.w3.org/2000/svg">
<path d="M19.1497 79.9927L13.6201 17.9727H74.38L68.8449 79.9831L43.9629 86.8808L19.1497 79.9927Z" fill="#E44D26"/>
<path d="M44 81.6089L64.1053 76.0347L68.8359 23.0449H44V81.6089Z" fill="#F16529"/>
<path d="M44.0001 46.047H33.9344L33.24 38.2569H44.0001V30.6504H24.9268L25.1083 32.6916L26.9783 53.6528H44.0001V46.047ZM44.0001 65.8009L43.9664 65.8098L35.4957 63.5218L34.9539 57.456H27.3179L28.3835 69.3993L43.965 73.725L44.0001 73.7147V65.8009Z" fill="#EBEBEB"/>
<path d="M19.2734 1.11914H23.1386V4.93889H26.6751V1.11914H30.5409V12.6843H26.6751V8.81158H23.1393V12.6843H19.2734V1.11914ZM35.6236 4.9547H32.2204V1.11914H42.8939V4.9547H39.4894V12.6843H35.6236V4.9547ZM44.5879 1.11914H48.618L51.0978 5.18295L53.5749 1.11914H57.6071V12.6843H53.7564V6.95189L51.0978 11.0638H51.0304L48.3698 6.95189V12.6843H44.5872V1.11914H44.5879ZM59.5314 1.11914H63.3979V8.86177H68.8339V12.685H59.5314V1.11914Z" fill="black"/>
<path d="M43.9739 46.047V53.6528H53.3404L52.4576 63.5177L43.9739 65.8078V73.7209L59.5677 69.3993L59.6819 68.1136L61.4694 48.0888L61.655 46.047H59.6049H43.9739ZM43.9739 30.6504V38.2569H62.3473L62.4992 36.5471L62.8464 32.6916L63.0286 30.6504H43.9739Z" fill="white"/>
</svg>
