<svg width="40" height="36" viewBox="0 0 40 36" fill="none" xmlns="http://www.w3.org/2000/svg">
<path d="M11.8743 0.76144H12.3743V0.75293H28.279C34.3019 0.75293 39.1261 5.19654 39.1261 10.5364V25.3912C39.1261 30.7313 34.3016 35.1747 28.2884 35.1747H11.8743C5.85003 35.1747 1.01782 30.7383 1.01782 25.4082V10.5449C1.01782 5.20556 5.85087 0.76144 11.8743 0.76144ZM3.02615 10.5523V10.5534V25.4167C3.02615 29.9189 7.01203 33.4591 11.8743 33.4591H28.2884C33.1334 33.4591 37.1178 29.9175 37.1178 25.3997V10.5449C37.1178 6.02676 33.133 2.48554 28.279 2.48554H11.8743C7.01956 2.48554 3.03627 6.02713 3.02615 10.5523ZM31.1105 7.07168C31.1105 6.63572 31.5063 6.20963 32.1147 6.20963C32.7231 6.20963 33.1188 6.63572 33.1188 7.07168C33.1188 7.50764 32.7231 7.93373 32.1147 7.93373C31.5063 7.93373 31.1105 7.50764 31.1105 7.07168ZM10.0522 17.9681C10.0522 13.0459 14.5186 8.93373 20.0814 8.93373C25.6441 8.93373 30.1105 13.0459 30.1105 17.9681C30.1105 22.8903 25.6441 27.0024 20.0814 27.0024C14.5186 27.0024 10.0522 22.8903 10.0522 17.9681ZM28.1022 17.9681C28.1022 13.8667 24.4837 10.6578 20.0814 10.6578C15.679 10.6578 12.0605 13.8667 12.0605 17.9681C12.0605 22.0694 15.679 25.2783 20.0814 25.2783C24.4837 25.2783 28.1022 22.0694 28.1022 17.9681Z" fill="#070707" stroke="#070707"/>
</svg>
