<svg width="88" height="88" viewBox="0 0 88 88" fill="none" xmlns="http://www.w3.org/2000/svg">
<g clip-path="url(#clip0_263_2)">
<path d="M87.9745 0H0.0260254C0.0117868 0 0.000244141 0.0115427 0.000244141 0.0257813V87.9742C0.000244141 87.9885 0.0117868 88 0.0260254 88H87.9745C87.9887 88 88.0002 87.9885 88.0002 87.9742V0.0257813C88.0002 0.0115427 87.9887 0 87.9745 0Z" fill="#F7DF1E"/>
<path d="M55.6877 63.5938C57.4065 66.5156 59.8127 68.5781 63.7659 68.5781C67.2034 68.5781 69.4377 66.8594 69.4377 64.4531C69.4377 61.7031 67.2034 60.6719 63.4221 58.9531L61.3596 58.0938C55.344 55.5156 51.3909 52.4219 51.3909 45.7188C51.3909 39.5312 56.0315 34.7188 63.4221 34.7188C68.7502 34.7188 72.5315 36.6094 75.1096 41.4219L68.7502 45.5469C67.3752 42.9688 65.8284 41.9375 63.4221 41.9375C61.0159 41.9375 59.469 43.4844 59.469 45.5469C59.469 47.9531 61.0159 48.9844 64.6252 50.5312L66.6877 51.3906C73.7346 54.4844 77.6877 57.4062 77.6877 64.4531C77.6877 71.8438 71.844 75.9688 63.9377 75.9688C56.2034 75.9688 51.219 72.3594 48.8127 67.5469L55.6877 63.5938ZM26.469 64.2812C27.844 66.5156 28.8752 68.5781 31.7971 68.5781C34.5471 68.5781 36.2659 67.5469 36.2659 63.4219V34.8906H44.5159V63.0781C44.5159 71.6719 39.5315 75.4531 32.1409 75.4531C25.4377 75.4531 21.6565 72.0156 19.7659 67.8906L26.469 64.2812Z" fill="black"/>
</g>
<defs>
<clipPath id="clip0_263_2">
<rect width="88" height="88" fill="white" transform="translate(0.000244141)"/>
</clipPath>
</defs>
</svg>
